# Blender 4.0.2
# www.blender.org
mtllib Room.mtl
o Cube
v -1.577058 0.000000 5.256858
v -1.577058 7.885287 5.256858
v -1.577058 0.000000 -5.256858
v -1.577058 7.885287 -5.256858
v 5.256858 0.000000 5.256858
v 5.256858 7.885287 5.256858
v 5.256858 0.000000 -5.256858
v 5.256858 7.885287 -5.256858
v -1.577058 0.000000 2.431859
v -1.577058 0.000000 2.431859
v -1.577058 0.004141 0.177515
v -1.577058 5.256858 2.431859
v -1.599495 5.263616 0.175484
v 5.256858 2.446283 1.755088
v 5.256858 5.439004 1.755088
v 5.256858 2.446283 -1.454569
v 5.256858 5.439004 -1.454569
vn -1.0000 -0.0000 -0.0000
vn -0.0000 -0.0000 -1.0000
vn 1.0000 -0.0000 -0.0000
vn -0.0000 -0.0000 1.0000
vn -0.0000 -1.0000 -0.0000
vn -0.0000 1.0000 -0.0000
vn -1.0000 0.0086 -0.0000
vn -1.0000 -0.0000 -0.0041
vn -0.9999 -0.0107 0.0099
vn -1.0000 -0.0043 -0.0000
vt 0.233333 0.100000
vt 0.300844 0.222444
vt 0.233333 0.222444
vt 0.631372 0.469192
vt 0.898372 0.777269
vt 0.631372 0.777269
vt 0.019474 0.019474
vt 0.115050 0.281900
vt 0.019474 0.430244
vt 0.467932 0.900000
vt 0.569198 0.603797
vt 0.569198 0.900000
vt 0.327551 0.019474
vt 0.233333 0.555696
vt 0.327551 0.430244
vt 0.467933 0.403797
vt 0.599578 0.100000
vt 0.599578 0.403797
vt 0.300930 0.320241
vt 0.334599 0.100000
vt 0.334599 0.555696
vt 0.231975 0.281900
vt 0.115050 0.126000
vt 0.231975 0.126000
vt 0.233420 0.320241
vt 0.898372 0.469192
vt 0.467932 0.603797
vt 0.467933 0.100000
s 0
usemtl Material.007
f 1/1/1 12/2/1 10/3/1
f 4/4/2 7/5/2 3/6/2
f 6/7/3 17/8/3 8/9/3
f 6/10/4 1/11/4 5/12/4
f 5/13/5 3/14/5 7/15/5
f 4/16/6 6/17/6 8/18/6
f 13/19/7 2/20/7 4/21/7
f 3/14/8 13/19/8 4/21/8
f 8/9/3 16/22/3 7/15/3
f 5/13/3 15/23/3 6/7/3
f 5/13/3 16/22/3 14/24/3
f 3/14/1 10/3/1 11/25/1
f 1/1/1 2/20/1 12/2/1
f 4/4/2 8/26/2 7/5/2
f 6/7/3 15/23/3 17/8/3
f 6/10/4 2/27/4 1/11/4
f 5/13/5 1/11/5 3/14/5
f 4/16/6 2/28/6 6/17/6
f 13/19/9 12/2/9 2/20/9
f 3/14/10 11/25/10 13/19/10
f 8/9/3 17/8/3 16/22/3
f 5/13/3 14/24/3 15/23/3
f 5/13/3 7/15/3 16/22/3
f 3/14/6 1/1/6 10/3/6
l 9 1
l 3 9
